<?xml version="1.0" encoding="utf-8"?>
<!-- Generator: Adobe Illustrator 22.0.1, SVG Export Plug-In . SVG Version: 6.00 Build 0)  -->
<svg version="1.1" id="Layer_1" xmlns="http://www.w3.org/2000/svg" xmlns:xlink="http://www.w3.org/1999/xlink" x="0px" y="0px"
	 viewBox="0 0 288.2 180.2" style="enable-background:new 0 0 288.2 180.2;" xml:space="preserve">
<style type="text/css">
	.st0{display:none;fill:#131313;stroke:#FFFFFF;stroke-miterlimit:10;}
	.st1{opacity:0.16;}
	.st2{fill:#0A3F7F;}
	.st3{fill:none;stroke:#0A3F7F;stroke-width:0.2597;stroke-miterlimit:10;}
	.st4{fill:#FFFFFF;stroke:#0A3F7F;stroke-width:0.2597;stroke-miterlimit:10;}
</style>
<rect x="-0.5" y="-0.2" class="st0" width="288.2" height="180.5"/>
<g>
	<g class="st1">
		<g>
			<ellipse class="st2" cx="32.9" cy="58.4" rx="3.7" ry="3.8"/>
			<ellipse class="st2" cx="79.8" cy="45.2" rx="1.7" ry="1.7"/>
			<ellipse class="st2" cx="95.1" cy="69.8" rx="2.4" ry="2.5"/>
			<ellipse class="st2" cx="138" cy="33.1" rx="1" ry="1.1"/>
			<ellipse class="st2" cx="130.6" cy="52.2" rx="2.3" ry="2.4"/>
			<ellipse class="st2" cx="39.8" cy="95.5" rx="1.4" ry="1.5"/>
			<ellipse class="st2" cx="63.6" cy="129.5" rx="2.8" ry="2.9"/>
			<ellipse class="st2" cx="18.7" cy="132.4" rx="1" ry="1.1"/>
			<ellipse class="st2" cx="34.9" cy="146.5" rx="0.9" ry="0.9"/>
			<ellipse class="st2" cx="68.2" cy="161.2" rx="2.8" ry="2.9"/>
			<ellipse class="st2" cx="86" cy="140.1" rx="0.3" ry="0.3"/>
			<ellipse class="st2" cx="34.4" cy="169" rx="0.9" ry="0.9"/>
			<ellipse class="st2" cx="101.8" cy="170.2" rx="0.8" ry="0.8"/>
			<ellipse class="st2" cx="125.4" cy="86.2" rx="2.2" ry="2.2"/>
			<ellipse class="st2" cx="17.1" cy="15.5" rx="0.6" ry="0.7"/>
			<ellipse class="st2" cx="171.7" cy="53" rx="1.3" ry="1.3"/>
			<ellipse class="st2" cx="165.7" cy="68.2" rx="0.6" ry="0.7"/>
			<ellipse class="st2" cx="156.8" cy="97.6" rx="3.2" ry="3.3"/>
			<ellipse class="st2" cx="145.9" cy="117.8" rx="0.8" ry="0.8"/>
			<ellipse class="st2" cx="113.6" cy="134.5" rx="0.8" ry="0.8"/>
			<ellipse class="st2" cx="122.5" cy="121" rx="0.3" ry="0.3"/>
			<ellipse class="st2" cx="79.4" cy="113.3" rx="1.3" ry="1.3"/>
			<ellipse class="st2" cx="127.2" cy="154.5" rx="0.6" ry="0.7"/>
			<ellipse class="st2" cx="165" cy="175" rx="2.8" ry="2.9"/>
			<ellipse class="st2" cx="173.8" cy="154.2" rx="0.9" ry="0.9"/>
			<ellipse class="st2" cx="210.7" cy="165.5" rx="2.8" ry="2.9"/>
			<ellipse class="st2" cx="241.6" cy="120.3" rx="0.9" ry="0.9"/>
			<ellipse class="st2" cx="242" cy="155.4" rx="1" ry="1.1"/>
			<ellipse class="st2" cx="267.1" cy="121.1" rx="2.4" ry="2.5"/>
			<ellipse class="st2" cx="260.9" cy="162" rx="0.3" ry="0.3"/>
			<ellipse class="st2" cx="256.9" cy="101" rx="0.4" ry="0.4"/>
			<ellipse class="st2" cx="256.9" cy="169.3" rx="1.4" ry="1.5"/>
			<ellipse class="st2" cx="219.1" cy="84.5" rx="0.8" ry="0.8"/>
			<ellipse class="st2" cx="82" cy="90.6" rx="1.8" ry="1.9"/>
			<ellipse class="st2" cx="193.1" cy="54.7" rx="2.3" ry="2.4"/>
			<ellipse class="st2" cx="189.3" cy="81" rx="0.8" ry="0.8"/>
			<ellipse class="st2" cx="197.2" cy="104.7" rx="3.4" ry="3.6"/>
			<ellipse class="st2" cx="233.9" cy="67.3" rx="1" ry="1.1"/>
			<ellipse class="st2" cx="220.6" cy="41.3" rx="1.5" ry="1.6"/>
			<ellipse class="st2" cx="183" cy="23.7" rx="1.7" ry="1.7"/>
			<ellipse class="st2" cx="174.6" cy="11.3" rx="3.4" ry="3.6"/>
			<ellipse class="st2" cx="128.5" cy="16" rx="0.9" ry="0.9"/>
			<ellipse class="st2" cx="74.3" cy="11.2" rx="2.7" ry="2.8"/>
			<ellipse class="st2" cx="240.4" cy="18.2" rx="0.9" ry="0.9"/>
			<ellipse class="st2" cx="247.7" cy="31.4" rx="3.2" ry="3.3"/>
			<ellipse class="st2" cx="256.9" cy="51.5" rx="1.4" ry="1.5"/>
			<ellipse class="st2" cx="258.8" cy="77.1" rx="2" ry="2.1"/>
			<ellipse class="st2" cx="244.2" cy="92.3" rx="1.9" ry="2"/>
			<ellipse class="st2" cx="270.7" cy="39.3" rx="1.1" ry="1.2"/>
			<ellipse class="st2" cx="273.6" cy="65.1" rx="1.5" ry="1.6"/>
			<ellipse class="st2" cx="277.3" cy="85.9" rx="1.9" ry="2"/>
			<ellipse class="st2" cx="270.3" cy="14.3" rx="0.5" ry="0.5"/>
			<ellipse class="st2" cx="211.3" cy="24.2" rx="0.6" ry="0.7"/>
			<ellipse class="st2" cx="223.3" cy="57.1" rx="0.9" ry="0.9"/>
			<ellipse class="st2" cx="65.4" cy="68.8" rx="0.5" ry="0.5"/>
			<ellipse class="st2" cx="13.9" cy="75.2" rx="1.3" ry="1.3"/>
			<ellipse class="st2" cx="10.5" cy="39.1" rx="0.6" ry="0.7"/>
			<ellipse class="st2" cx="11.5" cy="165.6" rx="4.2" ry="4.4"/>
			<ellipse class="st2" cx="49.8" cy="175.3" rx="0.8" ry="0.8"/>
			<ellipse class="st2" cx="11.5" cy="104.2" rx="0.6" ry="0.7"/>
			<ellipse class="st2" cx="41.2" cy="113.1" rx="1" ry="1.1"/>
		</g>
		<line class="st3" x1="17.1" y1="15.6" x2="10.4" y2="39.2"/>
		<line class="st3" x1="10.5" y1="39.1" x2="32.7" y2="58.4"/>
		<line class="st3" x1="74.2" y1="11.2" x2="32.8" y2="58.4"/>
		<line class="st3" x1="17.1" y1="15.6" x2="74.3" y2="11.2"/>
		<line class="st3" x1="32.7" y1="58.4" x2="14" y2="75"/>
		<line class="st3" x1="39.7" y1="95.5" x2="32.7" y2="58.5"/>
		<line class="st3" x1="17.1" y1="15.6" x2="32.8" y2="58.6"/>
		<line class="st3" x1="10.4" y1="39" x2="13.9" y2="75.2"/>
		<line class="st3" x1="32.8" y1="58.5" x2="11.5" y2="104.3"/>
		<path class="st4" d="M17.1,15.6"/>
		<path class="st4" d="M10.5,39.1"/>
		<path class="st4" d="M10.4,39.1"/>
		<line class="st3" x1="32.7" y1="58.5" x2="79.8" y2="45.2"/>
		<line class="st3" x1="32.6" y1="58.3" x2="65.1" y2="69"/>
		<line class="st3" x1="82" y1="90.6" x2="65.4" y2="68.8"/>
		<line class="st3" x1="79.7" y1="45.2" x2="65.4" y2="68.8"/>
		<line class="st3" x1="95.1" y1="69.8" x2="79.7" y2="45.1"/>
		<line class="st3" x1="13.8" y1="75" x2="39.8" y2="95.6"/>
		<line class="st3" x1="82.1" y1="90.7" x2="39.7" y2="95.5"/>
		<line class="st3" x1="95.1" y1="69.7" x2="82" y2="90.7"/>
		<line class="st3" x1="74.1" y1="11.2" x2="65.5" y2="68.8"/>
		<line class="st3" x1="74.1" y1="11.1" x2="79.7" y2="45.2"/>
		<line class="st3" x1="13.8" y1="75" x2="65.4" y2="68.8"/>
		<line class="st3" x1="39.7" y1="95.4" x2="41.2" y2="113.1"/>
		<path class="st4" d="M0.2,96.1"/>
		<path class="st4" d="M11.5,104.2"/>
		<line class="st3" x1="13.8" y1="75.1" x2="11.5" y2="104.2"/>
		<path class="st4" d="M13.9,75"/>
		<line class="st3" x1="79.5" y1="45.2" x2="128.5" y2="15.9"/>
		<line class="st3" x1="74.1" y1="11.1" x2="138.1" y2="33.1"/>
		<line class="st3" x1="128.5" y1="15.9" x2="130.6" y2="52.3"/>
		<line class="st3" x1="130.5" y1="52" x2="94.8" y2="69.8"/>
		<line class="st3" x1="125.4" y1="86" x2="174.7" y2="11.3"/>
		<line class="st3" x1="130.5" y1="52" x2="125.4" y2="86"/>
		<line class="st3" x1="137.9" y1="33" x2="128.4" y2="15.7"/>
		<line class="st3" x1="174.7" y1="11.1" x2="137.9" y2="33"/>
		<line class="st3" x1="183" y1="23.7" x2="174.7" y2="11"/>
		<line class="st3" x1="171.7" y1="52.8" x2="183.1" y2="23.6"/>
		<line class="st3" x1="128.5" y1="15.8" x2="171.7" y2="52.7"/>
		<line class="st3" x1="183.1" y1="23.7" x2="128.3" y2="15.8"/>
		<line class="st3" x1="137.9" y1="32.8" x2="156.8" y2="97.8"/>
		<line class="st3" x1="165.7" y1="68.2" x2="171.6" y2="52.9"/>
		<line class="st3" x1="156.9" y1="97.7" x2="125.5" y2="85.9"/>
		<line class="st3" x1="193.1" y1="55.1" x2="183.1" y2="23.5"/>
		<line class="st3" x1="220.7" y1="41.3" x2="211.4" y2="24.1"/>
		<line class="st3" x1="193.1" y1="55.1" x2="211.2" y2="24.1"/>
		<line class="st3" x1="211.5" y1="24.1" x2="240.5" y2="18"/>
		<line class="st3" x1="211.3" y1="24" x2="174.9" y2="11.3"/>
		<line class="st3" x1="247.7" y1="31.4" x2="220.6" y2="41.2"/>
		<line class="st3" x1="193.1" y1="54.7" x2="171.7" y2="52.8"/>
		<line class="st3" x1="165.7" y1="68.1" x2="193.2" y2="54.6"/>
		<line class="st3" x1="197" y1="104.6" x2="156.8" y2="97.7"/>
		<line class="st3" x1="165.5" y1="68.1" x2="130.5" y2="52"/>
		<line class="st3" x1="125.5" y1="85.9" x2="94.8" y2="69.6"/>
		<line class="st3" x1="82" y1="90.7" x2="125.4" y2="86"/>
		<line class="st3" x1="189.4" y1="81" x2="165.4" y2="67.9"/>
		<line class="st3" x1="156.7" y1="97.5" x2="189.3" y2="81"/>
		<line class="st3" x1="197.1" y1="104.7" x2="189.4" y2="80.9"/>
		<line class="st3" x1="193.2" y1="54.8" x2="197.1" y2="104.7"/>
		<line class="st3" x1="223.3" y1="56.9" x2="220.6" y2="41.1"/>
		<line class="st3" x1="240.4" y1="17.9" x2="220.7" y2="41.1"/>
		<line class="st3" x1="247.5" y1="31.3" x2="240.1" y2="18"/>
		<line class="st3" x1="128.5" y1="15.9" x2="94.8" y2="69.9"/>
		<line class="st3" x1="165.7" y1="67.9" x2="156.8" y2="97.5"/>
		<line class="st3" x1="189.1" y1="80.9" x2="219.1" y2="84.3"/>
		<line class="st3" x1="193.1" y1="54.7" x2="220.7" y2="41.1"/>
		<line class="st3" x1="223.3" y1="56.7" x2="219.1" y2="84.5"/>
		<line class="st3" x1="192.9" y1="54.7" x2="223.1" y2="56.9"/>
		<line class="st3" x1="247.4" y1="31.4" x2="233.9" y2="67.3"/>
		<line class="st3" x1="223.1" y1="56.7" x2="233.9" y2="67.3"/>
		<line class="st3" x1="219.1" y1="84.2" x2="192.9" y2="54.7"/>
		<line class="st3" x1="189.3" y1="80.9" x2="193.1" y2="54.6"/>
		<line class="st3" x1="219.1" y1="84.3" x2="233.9" y2="67.1"/>
		<line class="st3" x1="197.2" y1="104.5" x2="218.9" y2="84.3"/>
		<line class="st3" x1="256.9" y1="51.2" x2="247.5" y2="31.5"/>
		<line class="st3" x1="270.7" y1="39.2" x2="257" y2="51.4"/>
		<line class="st3" x1="273.6" y1="65" x2="270.6" y2="39.2"/>
		<line class="st3" x1="258.8" y1="77.1" x2="273.5" y2="64.9"/>
		<line class="st3" x1="277.2" y1="85.8" x2="259" y2="76.9"/>
		<line class="st3" x1="244.1" y1="92" x2="258.7" y2="77"/>
		<line class="st3" x1="233.7" y1="67" x2="244.1" y2="91.9"/>
		<line class="st3" x1="256.9" y1="101" x2="244.1" y2="91.9"/>
		<line class="st3" x1="267.2" y1="121.4" x2="256.9" y2="101"/>
		<line class="st3" x1="241.7" y1="120.4" x2="267.1" y2="121.3"/>
		<line class="st3" x1="197.1" y1="104.6" x2="241.5" y2="120.3"/>
		<line class="st3" x1="244.1" y1="91.9" x2="241.6" y2="120.3"/>
		<line class="st3" x1="219.1" y1="84.2" x2="244.1" y2="92"/>
		<line class="st3" x1="267.2" y1="121.3" x2="277.2" y2="85.8"/>
		<line class="st3" x1="244.1" y1="91.9" x2="277.1" y2="85.9"/>
		<line class="st3" x1="196.9" y1="104.5" x2="244.2" y2="91.9"/>
		<line class="st3" x1="257" y1="51.1" x2="244.2" y2="91.9"/>
		<line class="st3" x1="233.7" y1="67.1" x2="257.2" y2="51"/>
		<line class="st3" x1="258.8" y1="76.8" x2="256.9" y2="51"/>
		<line class="st3" x1="247.5" y1="31.5" x2="270.4" y2="14.2"/>
		<path class="st4" d="M288,39"/>
		<path class="st4" d="M270.7,39.2"/>
		<line class="st3" x1="273.4" y1="64.9" x2="288.1" y2="50"/>
		<line class="st3" x1="270.7" y1="39.1" x2="270.3" y2="14.2"/>
		<line class="st3" x1="256.9" y1="51" x2="270.4" y2="13.9"/>
		<line class="st3" x1="270.7" y1="39.2" x2="288.1" y2="27.4"/>
		<line class="st3" x1="267.1" y1="121.3" x2="242" y2="155.5"/>
		<line class="st3" x1="41.2" y1="113" x2="18.7" y2="132.4"/>
		<line class="st3" x1="11.4" y1="104.1" x2="18.7" y2="132.4"/>
		<path class="st4" d="M18.7,132.4"/>
		<line class="st3" x1="11.3" y1="165.6" x2="18.7" y2="132.3"/>
		<line class="st3" x1="34.9" y1="146.4" x2="11.3" y2="165.6"/>
		<line class="st3" x1="34.4" y1="169" x2="11.3" y2="165.4"/>
		<line class="st3" x1="26.8" y1="180.1" x2="34.4" y2="169"/>
		<path class="st4" d="M11.4,165.5"/>
		<path class="st4" d="M6.7,177.6"/>
		<line class="st3" x1="49.8" y1="175.3" x2="34.2" y2="169.1"/>
		<line class="st3" x1="68.1" y1="161.2" x2="49.8" y2="175.2"/>
		<line class="st3" x1="63.6" y1="129.4" x2="34.8" y2="146.6"/>
		<line class="st3" x1="18.7" y1="132.2" x2="34.8" y2="146.5"/>
		<path class="st4" d="M18.7,132.1"/>
		<path class="st4" d="M2.9,139.6"/>
		<line class="st3" x1="79.3" y1="113.2" x2="63.5" y2="129.5"/>
		<line class="st3" x1="41.1" y1="113" x2="79.3" y2="113.1"/>
		<line class="st3" x1="39.7" y1="95.5" x2="79.3" y2="113.1"/>
		<line class="st3" x1="81.9" y1="90.6" x2="79.3" y2="113.1"/>
		<line class="st3" x1="11.4" y1="104.1" x2="39.9" y2="95.5"/>
		<line class="st3" x1="41.1" y1="113" x2="11.4" y2="104"/>
		<line class="st3" x1="113.6" y1="134.5" x2="79.1" y2="113"/>
		<line class="st3" x1="85.9" y1="140.1" x2="79.1" y2="112.9"/>
		<line class="st3" x1="63.6" y1="129.5" x2="86" y2="140"/>
		<line class="st3" x1="41.1" y1="112.9" x2="63.7" y2="129.4"/>
		<line class="st3" x1="34.9" y1="146.5" x2="41.1" y2="112.8"/>
		<line class="st3" x1="68" y1="161.3" x2="34.9" y2="146.4"/>
		<line class="st3" x1="34.4" y1="169.1" x2="34.8" y2="146.3"/>
		<line class="st3" x1="49.8" y1="175.1" x2="34.9" y2="146.5"/>
		<line class="st3" x1="68" y1="161.2" x2="72.1" y2="180.1"/>
		<line class="st3" x1="63.6" y1="129.4" x2="68.1" y2="161.2"/>
		<line class="st3" x1="101.8" y1="170.1" x2="68.2" y2="161.1"/>
		<line class="st3" x1="89" y1="180.1" x2="101.9" y2="170.1"/>
		<line class="st3" x1="111" y1="180.1" x2="101.8" y2="170.1"/>
		<line class="st3" x1="86" y1="140" x2="101.8" y2="170.1"/>
		<line class="st3" x1="113.5" y1="134.5" x2="101.8" y2="170.3"/>
		<line class="st3" x1="86" y1="140.1" x2="113.3" y2="134.4"/>
		<line class="st3" x1="125.4" y1="85.8" x2="122.6" y2="121"/>
		<line class="st3" x1="82" y1="90.6" x2="122.6" y2="121"/>
		<line class="st3" x1="113.4" y1="134.3" x2="122.6" y2="120.9"/>
		<line class="st3" x1="127.1" y1="154.4" x2="122.6" y2="120.9"/>
		<line class="st3" x1="113.5" y1="134.5" x2="127.1" y2="154.4"/>
		<line class="st3" x1="145.9" y1="117.7" x2="156.7" y2="97.5"/>
		<line class="st3" x1="125.4" y1="85.8" x2="145.9" y2="117.6"/>
		<line class="st3" x1="127.1" y1="154.4" x2="145.8" y2="117.6"/>
		<line class="st3" x1="165" y1="174.9" x2="127.1" y2="154.3"/>
		<line class="st3" x1="101.8" y1="170" x2="165" y2="174.9"/>
		<line class="st3" x1="173.9" y1="154.1" x2="165" y2="174.9"/>
		<line class="st3" x1="145.9" y1="117.6" x2="173.9" y2="154"/>
		<line class="st3" x1="156.7" y1="97.6" x2="174" y2="154.3"/>
		<line class="st3" x1="197" y1="104.4" x2="173.9" y2="154.2"/>
		<line class="st3" x1="210.7" y1="165.4" x2="173.8" y2="154.1"/>
		<line class="st3" x1="196.9" y1="104.6" x2="210.7" y2="165.3"/>
		<line class="st3" x1="241.7" y1="120.4" x2="210.6" y2="165.3"/>
		<line class="st3" x1="211.2" y1="180.1" x2="210.8" y2="165.1"/>
		<line class="st3" x1="224.2" y1="180.1" x2="210.7" y2="165.2"/>
		<line class="st3" x1="242" y1="155.3" x2="210.8" y2="165.1"/>
		<line class="st3" x1="241.6" y1="120.3" x2="242" y2="155.3"/>
		<line class="st3" x1="257.1" y1="169.2" x2="242" y2="155.2"/>
		<line class="st3" x1="260.9" y1="161.9" x2="242" y2="155.1"/>
		<line class="st3" x1="257" y1="169.2" x2="254.8" y2="180.1"/>
		<line class="st3" x1="260.9" y1="162" x2="288.1" y2="165.1"/>
		<line class="st3" x1="257" y1="169" x2="260.9" y2="162"/>
		<line class="st3" x1="263.3" y1="180.1" x2="257" y2="168.9"/>
		<line class="st3" x1="260.9" y1="161.9" x2="267.2" y2="121.3"/>
		<line class="st3" x1="288.1" y1="151.3" x2="267.2" y2="121.3"/>
		<line class="st3" x1="288.1" y1="127.5" x2="267.2" y2="121.3"/>
		<line class="st3" x1="241.8" y1="155.2" x2="244.8" y2="180.1"/>
		<line class="st3" x1="173.9" y1="154.1" x2="174.4" y2="180.1"/>
		<line class="st3" x1="67.8" y1="161.1" x2="86" y2="140"/>
		<line class="st3" x1="101.8" y1="170" x2="127" y2="154.6"/>
		<line class="st3" x1="173.7" y1="154.3" x2="127" y2="154.3"/>
		<line class="st3" x1="95" y1="69.4" x2="65.1" y2="68.8"/>
		<line class="st3" x1="79.4" y1="45" x2="130.5" y2="52.3"/>
		<line class="st3" x1="171.5" y1="53" x2="130.4" y2="52.1"/>
		<line class="st3" x1="182.7" y1="23.7" x2="220.3" y2="41.4"/>
		<line class="st3" x1="39.6" y1="95.3" x2="65.1" y2="69"/>
		<line class="st3" x1="138" y1="33" x2="130.4" y2="52.3"/>
		<line class="st3" x1="125.4" y1="85.8" x2="165.2" y2="68.5"/>
		<line class="st3" x1="233.9" y1="67.4" x2="258.5" y2="77.1"/>
		<line class="st3" x1="274" y1="65.1" x2="288.1" y2="70.6"/>
		<line class="st3" x1="270.8" y1="39.3" x2="288.1" y2="39.1"/>
		<line class="st3" x1="288.1" y1="95.3" x2="277.3" y2="86.3"/>
		<g>
			<line class="st3" x1="0.1" y1="27.4" x2="16.6" y2="15.6"/>
			<line class="st3" x1="0.1" y1="39.1" x2="10.4" y2="39.2"/>
			<line class="st3" x1="0.1" y1="50" x2="10.3" y2="39.1"/>
			<line class="st3" x1="11.4" y1="104.2" x2="0.1" y2="95.3"/>
			<line class="st3" x1="0.1" y1="70.6" x2="13.8" y2="75"/>
			<line class="st3" x1="0.1" y1="127.5" x2="18.7" y2="132.4"/>
			<line class="st3" x1="0.1" y1="165.1" x2="11.3" y2="165.5"/>
			<line class="st3" x1="0.1" y1="151.3" x2="10.9" y2="165.5"/>
		</g>
		<g>
			<line class="st3" x1="111" y1="0.1" x2="128.6" y2="15.3"/>
			<line class="st3" x1="211.3" y1="0.1" x2="211.2" y2="23.8"/>
			<line class="st3" x1="240.2" y1="17.6" x2="224.2" y2="0.1"/>
			<line class="st3" x1="247.5" y1="30.7" x2="244.8" y2="0.1"/>
			<line class="st3" x1="270.3" y1="13.6" x2="263.3" y2="0.1"/>
			<line class="st3" x1="17.3" y1="14.9" x2="26.8" y2="0.1"/>
			<line class="st3" x1="74.5" y1="11.1" x2="57.2" y2="0.1"/>
			<line class="st3" x1="74.2" y1="10.7" x2="72.1" y2="0.1"/>
			<line class="st3" x1="74.5" y1="10.9" x2="89" y2="0.1"/>
			<line class="st3" x1="174.8" y1="11.1" x2="167.9" y2="0.1"/>
			<line class="st3" x1="174.4" y1="0.1" x2="174.8" y2="11.5"/>
			<line class="st3" x1="156.6" y1="0.1" x2="128.4" y2="15.6"/>
			<line class="st3" x1="254.8" y1="0.1" x2="247.7" y2="30.5"/>
		</g>
		<line class="st3" x1="50" y1="175.3" x2="57.2" y2="180.1"/>
		<line class="st3" x1="167.9" y1="180.1" x2="164.9" y2="175.2"/>
		<line class="st3" x1="156.6" y1="180.1" x2="164.7" y2="175.3"/>
	</g>
</g>
</svg>
