<?xml version="1.0" encoding="utf-8"?>
<!-- Generator: Adobe Illustrator 23.0.4, SVG Export Plug-In . SVG Version: 6.00 Build 0)  -->
<svg version="1.1" id="Layer_1" xmlns="http://www.w3.org/2000/svg" xmlns:xlink="http://www.w3.org/1999/xlink" x="0px" y="0px"
	 viewBox="0 0 66.9 96.9" style="enable-background:new 0 0 66.9 96.9;" xml:space="preserve">
<style type="text/css">
	.st0{fill-rule:evenodd;clip-rule:evenodd;fill:#FFFFFF;stroke:#2B3244;stroke-width:0.8082;stroke-miterlimit:10;}
	.st1{fill-rule:evenodd;clip-rule:evenodd;fill:#A041A3;stroke:#2B3244;stroke-width:0.8082;stroke-miterlimit:10;}
	.st2{opacity:0.42;fill-rule:evenodd;clip-rule:evenodd;fill:#A3B4D8;enable-background:new    ;}
</style>
<path class="st0" d="M15.3,39l5.3,5.7c0.5,0.5,0.6,1.3,0.3,2L0.6,94c-0.5,1.2,0.4,2.5,1.7,2.5h62.5c1.3,0,2.2-1.3,1.7-2.5L45.9,46.7
	c-0.3-0.7-0.2-1.4,0.3-2l5.3-5.7c1.1-1.2,0.3-3-1.3-3H16.6C15,36,14.2,37.9,15.3,39z"/>
<path class="st1" d="M66.4,94L51.7,60H15.2L0.6,94c-0.5,1.2,0.4,2.5,1.7,2.5h62.5C66,96.5,66.9,95.2,66.4,94z"/>
<circle class="st2 bubble b1" cx="38" cy="37.5" r="9.5"/>
<circle class="st2 bubble b2" cx="18.5" cy="18" r="6"/>
<circle class="st2 bubble b3" cx="40" cy="60" r="3"/>
<circle class="st2 bubble b4" cx="20" cy="75" r="3.5"/>
<circle class="st2 bubble b5" cx="37" cy="3.75" r="3.75"/>
<circle class="st2 bubble b5" cx="50" cy="85" r="3.75"/>
</svg>
