<svg xmlns="http://www.w3.org/2000/svg" xmlns:xlink="http://www.w3.org/1999/xlink" viewBox="0 0 99.29 68.91"><defs><style>.cls-1,.cls-5{fill:none;}.cls-2{opacity:0.16;}.cls-12,.cls-3,.cls-4{fill:#fff;}.cls-3,.cls-4,.cls-5{stroke:#fff;stroke-miterlimit:10;}.cls-3,.cls-5{stroke-width:0.3px;}.cls-4{stroke-width:1.19px;}.cls-6{fill:#bbb9c5;}.cls-7{fill:#122849;}.cls-8{fill:url(#New_Pattern);}.cls-9{fill:#d0dbea;}.cls-10{fill:#60627b;}.cls-11{fill:#3a4360;}</style><pattern id="New_Pattern" data-name="New Pattern" width="331.2" height="207.1" patternTransform="matrix(0.24, 0, 0, -0.24, 182.95, -47.34)" patternUnits="userSpaceOnUse" viewBox="0 0 331.2 207.1"><rect class="cls-1" width="331.2" height="207.1"/><rect class="cls-1" width="331.2" height="207.1"/><g class="cls-2"><ellipse class="cls-3" cx="37.8" cy="140" rx="4.2" ry="4.4"/><ellipse class="cls-3" cx="91.7" cy="155.2" rx="1.9" ry="2"/><ellipse class="cls-3" cx="109.3" cy="126.9" rx="2.8" ry="2.9"/><circle class="cls-3" cx="158.6" cy="169.1" r="1.2"/><ellipse class="cls-3" cx="150.1" cy="147.2" rx="2.6" ry="2.7"/><ellipse class="cls-3" cx="45.7" cy="97.4" rx="1.6" ry="1.7"/><ellipse class="cls-3" cx="73.1" cy="58.3" rx="3.2" ry="3.3"/><circle class="cls-3" cx="21.5" cy="55" r="1.2"/><ellipse class="cls-3" cx="40.1" cy="38.7" rx="1" ry="1.1"/><ellipse class="cls-3" cx="78.4" cy="21.8" rx="3.2" ry="3.3"/><circle class="cls-3" cx="98.9" cy="46.2" r="0.3"/><ellipse class="cls-3" cx="39.6" cy="12.9" rx="1" ry="1.1"/><circle class="cls-3" cx="117" cy="11.5" r="0.9"/><ellipse class="cls-3" cx="144.1" cy="108.1" rx="2.5" ry="2.6"/><ellipse class="cls-4" cx="19.6" cy="189.3" rx="0.7" ry="0.8"/><circle class="cls-3" cx="197.3" cy="146.3" r="1.5"/><ellipse class="cls-3" cx="190.4" cy="128.8" rx="0.7" ry="0.8"/><ellipse class="cls-3" cx="180.2" cy="95" rx="3.7" ry="3.8"/><circle class="cls-3" cx="167.7" cy="71.7" r="0.9"/><circle class="cls-3" cx="130.5" cy="52.6" r="0.9"/><circle class="cls-3" cx="140.8" cy="68.1" r="0.3"/><circle class="cls-3" cx="91.3" cy="76.9" r="1.5"/><ellipse class="cls-3" cx="146.2" cy="29.6" rx="0.7" ry="0.8"/><ellipse class="cls-3" cx="189.7" cy="6" rx="3.2" ry="3.3"/><ellipse class="cls-3" cx="199.8" cy="29.9" rx="1" ry="1.1"/><ellipse class="cls-3" cx="242.1" cy="17" rx="3.2" ry="3.3"/><ellipse class="cls-3" cx="277.7" cy="68.8" rx="1" ry="1.1"/><circle class="cls-3" cx="278.1" cy="28.5" r="1.2"/><ellipse class="cls-3" cx="307" cy="67.9" rx="2.8" ry="2.9"/><circle class="cls-3" cx="299.8" cy="20.9" r="0.3"/><ellipse class="cls-3" cx="295.3" cy="91" rx="0.4" ry="0.5"/><ellipse class="cls-3" cx="295.3" cy="12.6" rx="1.6" ry="1.7"/><circle class="cls-3" cx="251.8" cy="110.1" r="0.9"/><circle class="cls-3" cx="94.2" cy="103.1" r="2.1"/><ellipse class="cls-3" cx="221.9" cy="144.3" rx="2.6" ry="2.7"/><circle class="cls-3" cx="217.5" cy="114" r="0.9"/><ellipse class="cls-3" cx="226.6" cy="86.8" rx="4" ry="4.1"/><circle class="cls-3" cx="268.8" cy="129.8" r="1.2"/><circle class="cls-3" cx="253.5" cy="159.6" r="1.8"/><ellipse class="cls-3" cx="210.3" cy="179.9" rx="1.9" ry="2"/><ellipse class="cls-3" cx="200.7" cy="194.2" rx="4" ry="4.1"/><ellipse class="cls-3" cx="147.6" cy="188.7" rx="1" ry="1.1"/><ellipse class="cls-3" cx="85.4" cy="194.3" rx="3.1" ry="3.2"/><ellipse class="cls-3" cx="276.2" cy="186.3" rx="1" ry="1.1"/><ellipse class="cls-3" cx="284.7" cy="171.1" rx="3.7" ry="3.8"/><ellipse class="cls-3" cx="295.3" cy="147.9" rx="1.6" ry="1.7"/><ellipse class="cls-3" cx="297.5" cy="118.6" rx="2.3" ry="2.4"/><ellipse class="cls-3" cx="280.6" cy="101.1" rx="2.2" ry="2.3"/><ellipse class="cls-3" cx="311.1" cy="161.9" rx="1.3" ry="1.4"/><circle class="cls-3" cx="314.5" cy="132.3" r="1.8"/><ellipse class="cls-3" cx="318.7" cy="108.4" rx="2.2" ry="2.3"/><circle class="cls-3" cx="310.7" cy="190.7" r="0.6"/><ellipse class="cls-3" cx="242.8" cy="179.3" rx="0.7" ry="0.8"/><ellipse class="cls-3" cx="256.6" cy="141.5" rx="1" ry="1.1"/><circle class="cls-3" cx="75.1" cy="128" r="0.6"/><circle class="cls-3" cx="16" cy="120.7" r="1.5"/><ellipse class="cls-3" cx="12" cy="162.2" rx="0.7" ry="0.8"/><ellipse class="cls-3" cx="13.2" cy="16.8" rx="4.8" ry="5"/><circle class="cls-3" cx="57.3" cy="5.7" r="0.9"/><ellipse class="cls-3" cx="13.2" cy="87.4" rx="0.7" ry="0.8"/><circle class="cls-3" cx="47.3" cy="77.2" r="1.2"/><line class="cls-5" x1="19.6" y1="189.3" x2="12" y2="162.1"/><line class="cls-5" x1="12.1" y1="162.2" x2="37.6" y2="140"/><line class="cls-5" x1="85.3" y1="194.2" x2="37.7" y2="140"/><line class="cls-5" x1="19.6" y1="189.2" x2="85.4" y2="194.3"/><line class="cls-5" x1="37.6" y1="140" x2="16.1" y2="120.9"/><line class="cls-5" x1="45.6" y1="97.4" x2="37.6" y2="139.9"/><line class="cls-5" x1="19.6" y1="189.2" x2="37.7" y2="139.8"/><line class="cls-5" x1="12" y1="162.3" x2="15.9" y2="120.7"/><line class="cls-5" x1="37.7" y1="139.9" x2="13.2" y2="87.3"/><path class="cls-3" d="M19.6,189.2"/><path class="cls-3" d="M12.1,162.2"/><path class="cls-3" d="M11.9,162.2"/><line class="cls-5" x1="37.6" y1="139.9" x2="91.8" y2="155.2"/><line class="cls-5" x1="37.5" y1="140.1" x2="74.9" y2="127.8"/><line class="cls-5" x1="94.3" y1="103" x2="75.1" y2="128.1"/><line class="cls-5" x1="91.6" y1="155.2" x2="75.2" y2="128"/><line class="cls-5" x1="109.3" y1="126.9" x2="91.6" y2="155.3"/><line class="cls-5" x1="15.9" y1="120.9" x2="45.7" y2="97.3"/><line class="cls-5" x1="94.3" y1="102.9" x2="45.6" y2="97.4"/><line class="cls-5" x1="109.3" y1="127" x2="94.2" y2="102.9"/><line class="cls-5" x1="85.2" y1="194.2" x2="75.2" y2="128"/><line class="cls-5" x1="85.2" y1="194.4" x2="91.6" y2="155.2"/><line class="cls-5" x1="15.9" y1="120.9" x2="75.1" y2="128"/><line class="cls-5" x1="45.7" y1="97.5" x2="47.3" y2="77.2"/><path class="cls-3" d="M.3,96.7"/><path class="cls-3" d="M13.2,87.3"/><line class="cls-5" x1="15.9" y1="120.9" x2="13.2" y2="87.3"/><path class="cls-3" d="M16,120.9"/><line class="cls-5" x1="91.4" y1="155.2" x2="147.6" y2="188.9"/><line class="cls-5" x1="85.2" y1="194.4" x2="158.7" y2="169"/><line class="cls-5" x1="147.6" y1="188.9" x2="150.1" y2="147"/><line class="cls-5" x1="150" y1="147.3" x2="109" y2="126.9"/><line class="cls-5" x1="144.2" y1="108.3" x2="200.8" y2="194.1"/><line class="cls-5" x1="150" y1="147.3" x2="144.1" y2="108.3"/><line class="cls-5" x1="158.5" y1="169.2" x2="147.6" y2="189.1"/><line class="cls-5" x1="200.8" y1="194.3" x2="158.5" y2="169.2"/><line class="cls-5" x1="210.3" y1="179.9" x2="200.8" y2="194.5"/><line class="cls-5" x1="197.3" y1="146.4" x2="210.5" y2="180"/><line class="cls-5" x1="147.6" y1="189" x2="197.3" y2="146.6"/><line class="cls-5" x1="210.5" y1="179.9" x2="147.5" y2="189"/><line class="cls-5" x1="158.5" y1="169.4" x2="180.2" y2="94.7"/><line class="cls-5" x1="190.4" y1="128.8" x2="197.2" y2="146.4"/><line class="cls-5" x1="180.3" y1="94.8" x2="144.3" y2="108.4"/><line class="cls-5" x1="221.9" y1="143.8" x2="210.5" y2="180.2"/><line class="cls-5" x1="253.7" y1="159.6" x2="243" y2="179.4"/><line class="cls-5" x1="221.9" y1="143.8" x2="242.7" y2="179.4"/><line class="cls-5" x1="243" y1="179.4" x2="276.4" y2="186.4"/><line class="cls-5" x1="242.8" y1="179.6" x2="201" y2="194.2"/><line class="cls-5" x1="284.7" y1="171.1" x2="253.5" y2="159.8"/><line class="cls-5" x1="221.9" y1="144.3" x2="197.3" y2="146.5"/><line class="cls-5" x1="190.4" y1="128.9" x2="222" y2="144.4"/><line class="cls-5" x1="226.4" y1="86.9" x2="180.2" y2="94.8"/><line class="cls-5" x1="190.3" y1="128.9" x2="150" y2="147.3"/><line class="cls-5" x1="144.3" y1="108.4" x2="109" y2="127.1"/><line class="cls-5" x1="94.3" y1="102.9" x2="144.1" y2="108.3"/><line class="cls-5" x1="217.7" y1="114" x2="190.1" y2="129.1"/><line class="cls-5" x1="180.1" y1="95" x2="217.5" y2="114"/><line class="cls-5" x1="226.5" y1="86.8" x2="217.7" y2="114.2"/><line class="cls-5" x1="222" y1="144.1" x2="226.5" y2="86.8"/><line class="cls-5" x1="256.6" y1="141.7" x2="253.5" y2="159.9"/><line class="cls-5" x1="276.2" y1="186.6" x2="253.7" y2="159.9"/><line class="cls-5" x1="284.4" y1="171.2" x2="275.9" y2="186.4"/><line class="cls-5" x1="147.6" y1="188.9" x2="109" y2="126.8"/><line class="cls-5" x1="190.4" y1="129.1" x2="180.2" y2="95"/><line class="cls-5" x1="217.4" y1="114.2" x2="251.8" y2="110.2"/><line class="cls-5" x1="221.9" y1="144.3" x2="253.7" y2="159.9"/><line class="cls-5" x1="256.6" y1="142" x2="251.8" y2="110.1"/><line class="cls-5" x1="221.8" y1="144.3" x2="256.5" y2="141.7"/><line class="cls-5" x1="284.3" y1="171.1" x2="268.8" y2="129.8"/><line class="cls-5" x1="256.5" y1="142" x2="268.9" y2="129.8"/><line class="cls-5" x1="251.8" y1="110.4" x2="221.8" y2="144.3"/><line class="cls-5" x1="217.5" y1="114.2" x2="221.9" y2="144.4"/><line class="cls-5" x1="251.8" y1="110.2" x2="268.8" y2="130"/><line class="cls-5" x1="226.6" y1="87" x2="251.6" y2="110.2"/><line class="cls-5" x1="295.3" y1="148.2" x2="284.4" y2="170.9"/><line class="cls-5" x1="311.1" y1="162.1" x2="295.4" y2="148.1"/><line class="cls-5" x1="314.5" y1="132.4" x2="310.9" y2="162.1"/><line class="cls-5" x1="297.5" y1="118.6" x2="314.3" y2="132.6"/><line class="cls-5" x1="318.6" y1="108.5" x2="297.6" y2="118.7"/><line class="cls-5" x1="280.6" y1="101.4" x2="297.4" y2="118.7"/><line class="cls-5" x1="268.6" y1="130.1" x2="280.6" y2="101.5"/><line class="cls-5" x1="295.3" y1="91" x2="280.5" y2="101.5"/><line class="cls-5" x1="307" y1="67.6" x2="295.3" y2="91"/><line class="cls-5" x1="277.8" y1="68.8" x2="306.9" y2="67.7"/><line class="cls-5" x1="226.5" y1="86.9" x2="277.6" y2="68.8"/><line class="cls-5" x1="280.6" y1="101.5" x2="277.7" y2="68.8"/><line class="cls-5" x1="251.8" y1="110.4" x2="280.6" y2="101.4"/><line class="cls-5" x1="307" y1="67.7" x2="318.6" y2="108.5"/><line class="cls-5" x1="280.6" y1="101.5" x2="318.5" y2="108.4"/><line class="cls-5" x1="226.3" y1="87" x2="280.6" y2="101.5"/><line class="cls-5" x1="295.4" y1="148.4" x2="280.6" y2="101.5"/><line class="cls-5" x1="268.6" y1="130" x2="295.6" y2="148.5"/><line class="cls-5" x1="297.5" y1="118.9" x2="295.3" y2="148.5"/><line class="cls-5" x1="284.4" y1="170.9" x2="310.8" y2="190.8"/><path class="cls-3" d="M331,162.3"/><path class="cls-3" d="M311.1,162.1"/><line class="cls-5" x1="314.2" y1="132.6" x2="331.1" y2="149.7"/><line class="cls-5" x1="311.1" y1="162.2" x2="310.7" y2="190.8"/><line class="cls-5" x1="295.3" y1="148.5" x2="310.8" y2="191.1"/><line class="cls-5" x1="311.1" y1="162.1" x2="331.1" y2="175.7"/><line class="cls-5" x1="306.9" y1="67.8" x2="278.1" y2="28.4"/><line class="cls-5" x1="47.3" y1="77.3" x2="21.5" y2="55"/><line class="cls-5" x1="13.1" y1="87.4" x2="21.5" y2="55"/><path class="cls-3" d="M21.5,55"/><line class="cls-5" x1="13" y1="16.9" x2="21.5" y2="55.1"/><line class="cls-5" x1="40.1" y1="38.9" x2="13" y2="16.9"/><line class="cls-5" x1="39.5" y1="12.9" x2="12.9" y2="17"/><line class="cls-5" x1="30.8" y1="0.1" x2="39.5" y2="12.9"/><path class="cls-3" d="M13,17"/><path class="cls-3" d="M7.7,3"/><line class="cls-5" x1="57.2" y1="5.7" x2="39.3" y2="12.8"/><line class="cls-5" x1="78.3" y1="21.8" x2="57.3" y2="5.8"/><line class="cls-5" x1="73.1" y1="58.4" x2="40" y2="38.7"/><line class="cls-5" x1="21.5" y1="55.2" x2="40" y2="38.8"/><path class="cls-3" d="M21.5,55.3"/><path class="cls-3" d="M3.4,46.7"/><line class="cls-5" x1="91.2" y1="77" x2="73" y2="58.3"/><line class="cls-5" x1="47.2" y1="77.3" x2="91.2" y2="77.1"/><line class="cls-5" x1="45.7" y1="97.4" x2="91.2" y2="77.2"/><line class="cls-5" x1="94.1" y1="103" x2="91.2" y2="77.2"/><line class="cls-5" x1="13.1" y1="87.5" x2="45.9" y2="97.4"/><line class="cls-5" x1="47.2" y1="77.3" x2="13.1" y2="87.6"/><line class="cls-5" x1="130.5" y1="52.6" x2="91" y2="77.3"/><line class="cls-5" x1="98.8" y1="46.2" x2="91" y2="77.4"/><line class="cls-5" x1="73.1" y1="58.3" x2="98.9" y2="46.3"/><line class="cls-5" x1="47.2" y1="77.4" x2="73.2" y2="58.4"/><line class="cls-5" x1="40.1" y1="38.8" x2="47.2" y2="77.5"/><line class="cls-5" x1="78.2" y1="21.7" x2="40.1" y2="38.9"/><line class="cls-5" x1="39.5" y1="12.8" x2="40" y2="39"/><line class="cls-5" x1="57.3" y1="5.9" x2="40.1" y2="38.8"/><line class="cls-5" x1="78.2" y1="21.8" x2="82.9" y2="0.1"/><line class="cls-5" x1="73.1" y1="58.4" x2="78.3" y2="21.8"/><line class="cls-5" x1="117" y1="11.6" x2="78.4" y2="21.9"/><line class="cls-5" x1="102.3" y1="0.1" x2="117.1" y2="11.6"/><line class="cls-5" x1="127.6" y1="0.1" x2="117" y2="11.7"/><line class="cls-5" x1="98.9" y1="46.3" x2="117" y2="11.7"/><line class="cls-5" x1="130.4" y1="52.6" x2="117" y2="11.4"/><line class="cls-5" x1="98.9" y1="46.1" x2="130.2" y2="52.7"/><line class="cls-5" x1="144.1" y1="108.5" x2="140.9" y2="68.1"/><line class="cls-5" x1="94.2" y1="103" x2="140.9" y2="68.1"/><line class="cls-5" x1="130.3" y1="52.8" x2="140.9" y2="68.2"/><line class="cls-5" x1="146" y1="29.6" x2="140.9" y2="68.2"/><line class="cls-5" x1="130.4" y1="52.6" x2="146.1" y2="29.6"/><line class="cls-5" x1="167.7" y1="71.8" x2="180.1" y2="95"/><line class="cls-5" x1="144.1" y1="108.5" x2="167.7" y2="71.9"/><line class="cls-5" x1="146" y1="29.6" x2="167.6" y2="72"/><line class="cls-5" x1="189.7" y1="6.1" x2="146" y2="29.8"/><line class="cls-5" x1="117" y1="11.8" x2="189.7" y2="6.1"/><line class="cls-5" x1="199.8" y1="30" x2="189.7" y2="6.1"/><line class="cls-5" x1="167.7" y1="72" x2="199.8" y2="30.1"/><line class="cls-5" x1="180.1" y1="94.9" x2="199.9" y2="29.8"/><line class="cls-5" x1="226.4" y1="87.1" x2="199.8" y2="29.9"/><line class="cls-5" x1="242.1" y1="17.1" x2="199.7" y2="30"/><line class="cls-5" x1="226.3" y1="86.9" x2="242.2" y2="17.2"/><line class="cls-5" x1="277.8" y1="68.8" x2="242" y2="17.2"/><line class="cls-5" x1="242.8" y1="0.1" x2="242.3" y2="17.4"/><line class="cls-5" x1="257.7" y1="0.1" x2="242.2" y2="17.3"/><line class="cls-5" x1="278.1" y1="28.6" x2="242.3" y2="17.4"/><line class="cls-5" x1="277.7" y1="68.9" x2="278.1" y2="28.6"/><line class="cls-5" x1="295.5" y1="12.7" x2="278.1" y2="28.7"/><line class="cls-5" x1="299.8" y1="21" x2="278.1" y2="28.8"/><line class="cls-5" x1="295.3" y1="12.7" x2="292.8" y2="0.1"/><line class="cls-5" x1="299.8" y1="20.9" x2="331.1" y2="17.4"/><line class="cls-5" x1="295.3" y1="12.9" x2="299.8" y2="20.9"/><line class="cls-5" x1="302.6" y1="0.1" x2="295.3" y2="13"/><line class="cls-5" x1="299.8" y1="21" x2="307" y2="67.8"/><line class="cls-5" x1="331.1" y1="33.3" x2="307.1" y2="67.8"/><line class="cls-5" x1="331.1" y1="60.6" x2="307.1" y2="67.7"/><line class="cls-5" x1="277.9" y1="28.7" x2="281.3" y2="0.1"/><line class="cls-5" x1="199.8" y1="30" x2="200.5" y2="0.1"/><line class="cls-5" x1="78" y1="21.9" x2="98.9" y2="46.3"/><line class="cls-5" x1="117" y1="11.8" x2="145.9" y2="29.4"/><line class="cls-5" x1="199.6" y1="29.8" x2="145.9" y2="29.8"/><line class="cls-5" x1="109.2" y1="127.4" x2="74.9" y2="128"/><line class="cls-5" x1="91.3" y1="155.4" x2="150" y2="147.1"/><line class="cls-5" x1="197.1" y1="146.3" x2="149.8" y2="147.3"/><line class="cls-5" x1="210" y1="179.9" x2="253.2" y2="159.5"/><line class="cls-5" x1="45.6" y1="97.6" x2="74.9" y2="127.8"/><line class="cls-5" x1="158.6" y1="169.2" x2="149.8" y2="147.1"/><line class="cls-5" x1="144.2" y1="108.5" x2="189.9" y2="128.4"/><line class="cls-5" x1="268.8" y1="129.6" x2="297.1" y2="118.5"/><line class="cls-5" x1="314.9" y1="132.3" x2="331.1" y2="126"/><line class="cls-5" x1="311.2" y1="161.9" x2="331.1" y2="162.2"/><line class="cls-5" x1="331.1" y1="97.6" x2="318.7" y2="107.9"/><line class="cls-5" x1="0.1" y1="175.7" x2="19.1" y2="189.2"/><line class="cls-5" x1="0.1" y1="162.2" x2="12" y2="162.1"/><line class="cls-5" x1="0.1" y1="149.7" x2="11.8" y2="162.2"/><line class="cls-5" x1="13.1" y1="87.3" x2="0.1" y2="97.6"/><line class="cls-5" x1="0.1" y1="126" x2="15.9" y2="120.9"/><line class="cls-5" x1="0.1" y1="60.6" x2="21.4" y2="55"/><line class="cls-5" x1="0.1" y1="17.4" x2="12.9" y2="17"/><line class="cls-5" x1="0.1" y1="33.3" x2="12.5" y2="17"/><line class="cls-5" x1="127.6" y1="207" x2="147.8" y2="189.5"/><line class="cls-5" x1="242.8" y1="207" x2="242.7" y2="179.8"/><line class="cls-5" x1="276.1" y1="186.9" x2="257.7" y2="207"/><line class="cls-5" x1="284.4" y1="171.9" x2="281.3" y2="207"/><line class="cls-5" x1="310.7" y1="191.5" x2="302.6" y2="207"/><line class="cls-5" x1="19.8" y1="190" x2="30.8" y2="207"/><line class="cls-5" x1="85.7" y1="194.4" x2="65.7" y2="207"/><line class="cls-5" x1="85.3" y1="194.8" x2="82.9" y2="207"/><line class="cls-5" x1="85.7" y1="194.6" x2="102.2" y2="207"/><line class="cls-5" x1="200.9" y1="194.4" x2="193" y2="207"/><line class="cls-5" x1="200.5" y1="207" x2="200.9" y2="193.9"/><line class="cls-5" x1="180" y1="207" x2="147.6" y2="189.2"/><line class="cls-5" x1="292.8" y1="207" x2="284.6" y2="172.1"/><line class="cls-5" x1="57.5" y1="5.6" x2="65.7" y2="0.1"/><line class="cls-5" x1="193" y1="0.1" x2="189.5" y2="5.8"/><line class="cls-5" x1="180" y1="0.1" x2="189.3" y2="5.6"/></g></pattern></defs><title>eye</title><g id="Layer_2" data-name="Layer 2"><g id="Layer_1-2" data-name="Layer 1"><path class="cls-6" d="M50.5,63.59A28.57,28.57,0,1,1,79.07,35,28.61,28.61,0,0,1,50.5,63.59Zm0-56A27.43,27.43,0,1,0,77.93,35,27.47,27.47,0,0,0,50.5,7.59Z"/><circle class="cls-7" cx="50.5" cy="35.02" r="25.5"/><circle class="cls-8" cx="50.5" cy="35.02" r="25.5"/><circle class="cls-9" cx="56.25" cy="32.27" r="6.25"/><path class="cls-10" d="M96.41,19.87C95.33,23.94,94.12,28,92.69,32a88.34,88.34,0,0,1-5.22,11.69A55.2,55.2,0,0,1,80.08,54.3a44.53,44.53,0,0,1-4.69,4.52A42,42,0,0,1,70,62.5a43.48,43.48,0,0,1-11.91,4.67,67.67,67.67,0,0,1-12.44,1.64A156.25,156.25,0,0,1,21,67.52a156.51,156.51,0,0,0,24.52-.7,64.7,64.7,0,0,0,11.8-2.54A40,40,0,0,0,67.9,59.12c6.48-4.38,11-11,14.19-18.1A82.42,82.42,0,0,0,86,29.86c1-3.84,1.86-7.75,2.57-11.69v0a4,4,0,1,1,7.88,1.42A3,3,0,0,1,96.41,19.87Z"/><path class="cls-11" d="M0,56.52c.41-.51,1.12-.58,1.67-.77a2.3,2.3,0,0,0,1.15-1.28c.36-1.14.69-2.38,1.06-3.56.74-2.39,1.58-4.75,2.49-7.08A87.81,87.81,0,0,1,13,30.27a68.81,68.81,0,0,1,9.3-12.18,52.64,52.64,0,0,1,12.4-9.55,49.31,49.31,0,0,1,15.06-5.3,59,59,0,0,1,16-.36,94.33,94.33,0,0,1,30.06,9.38l0,0a6,6,0,0,1-5.28,10.79c-.18-.09-.37-.19-.53-.29a84,84,0,0,0-25.69-11,50.87,50.87,0,0,0-13.69-1.09,42.44,42.44,0,0,0-13.36,3.25c-8.6,3.62-16,10.23-21.85,18a85.17,85.17,0,0,0-7.78,12.5c-1.13,2.19-2.19,4.43-3.15,6.72-.5,1.15-.92,2.28-1.44,3.47a2.52,2.52,0,0,1-1.42,1.28C1.11,56.08.47,56.05,0,56.52Z"/><path class="cls-10" d="M86.5,2c-2,.36-4.08.64-6.1.9s-4,.44-6,.8-4,.59-6,.85L62.5,5.64a102.32,102.32,0,0,0-22.41,6.61A77.16,77.16,0,0,0,20.68,24.81C14.7,30,9,35.93,2.5,41A144.07,144.07,0,0,1,16.81,20.89a60,60,0,0,1,20.44-15A71.71,71.71,0,0,1,61.82.19C63.91.11,66,0,68.06,0s4.14.18,6.2.3A55.36,55.36,0,0,1,80.41,1C82.45,1.29,84.48,1.61,86.5,2Z"/><path class="cls-12" d="M59.5,28a3.69,3.69,0,0,1,1.31,1.14,4.45,4.45,0,0,1,.75,1.6,3.52,3.52,0,0,1-.06,1.82,2.84,2.84,0,0,1-1,1.44,8.86,8.86,0,0,0,.23-1.58A5.49,5.49,0,0,0,60.59,31,18.65,18.65,0,0,0,59.5,28Z"/></g></g></svg>