<?xml version="1.0" encoding="utf-8"?>
<!-- Generator: Adobe Illustrator 23.0.4, SVG Export Plug-In . SVG Version: 6.00 Build 0)  -->
<svg version="1.1" id="Layer_1" xmlns="http://www.w3.org/2000/svg" xmlns:xlink="http://www.w3.org/1999/xlink" x="0px" y="0px"
	 viewBox="0 0 94.5 118.5" style="enable-background:new 0 0 94.5 118.5;" xml:space="preserve">
<style type="text/css">
	.st0{fill:#FDBB53;}
	.st1{fill:none;stroke:#122849;stroke-width:0.5;stroke-miterlimit:10;}
	.st2{fill:#E5DACF;}
	.st3{fill:#122849;}
</style>
<g>
	<g>
		<path class="st0" d="M14.4,57.5c-0.4,2.1-0.6,4.3-0.6,6.5c0,18.8,15.2,34,34,34s34-15.2,34-34c0-2-0.2-3.9-0.5-5.8
			c-7.9,2.7-19.5,4.3-32.5,4.3C34.7,62.5,22.2,60.5,14.4,57.5z"/>
	</g>
	<path class="st1" d="M47.2,10"/>
	<polygon class="st2" points="58.7,27.5 35.7,27.5 30.7,0 63.7,0 	"/>
	<path d="M47.7,98.2c-18.9,0-34.2-15.4-34.2-34.2c0-13.1,7.3-24.8,19-30.7V12.1l0.3,0.2c0.1,0,6.5,2.8,14.4,2.8
		c7.9,0,14.3-2.8,14.4-2.8l0.3-0.2v20.7C74.1,38.4,82,50.6,82,64C82,82.9,66.6,98.2,47.7,98.2z M33,12.9v20.8l-0.1,0.1
		C21.2,39.4,14,51,14,64c0,18.6,15.1,33.8,33.8,33.8S81.5,82.6,81.5,64c0-13.2-7.8-25.3-19.9-30.8l-0.1-0.1V12.9
		c-1.5,0.6-7.3,2.7-14.2,2.7S34.4,13.4,33,12.9z"/>
</g>
<path class="st3" d="M51.6,118.5l-1-36.3c-0.9,0-1.9,0-2.9,0c-18.4,0-33-3.8-33.8-8.7l-0.1,0.1l-13.4,31L0,104.4l13.5-31.1l1-0.9
	l0,0.7c0,4.8,14.9,8.7,33.3,8.7s33.3-3.9,33.3-8.6l0-0.1L81,71.6l13.5,30.8l-0.5,0.2L81.4,73.9c-1.4,4.4-14,7.9-30.3,8.3l1,36.3
	L51.6,118.5z"/>
</svg>
