<?xml version="1.0" encoding="utf-8"?>
<!-- Generator: Adobe Illustrator 22.0.1, SVG Export Plug-In . SVG Version: 6.00 Build 0)  -->
<svg version="1.1" id="Layer_1" xmlns="http://www.w3.org/2000/svg" xmlns:xlink="http://www.w3.org/1999/xlink" x="0px" y="0px"
	 viewBox="0 0 233.8 222.4" style="enable-background:new 0 0 233.8 222.4;" xml:space="preserve">
<style type="text/css">
	.st0{fill:#FFDA9B;}
	.st1{fill:#CCDDD3;}
	.st2{fill:#A9B1B8;}
	.st3{fill:#DFEFCA;}
	.st4{fill:#AFD0D5;}
</style>
<g>
	<path class="st0" d="M121.5,111.5c0,0,68.5-66.3,112.3,47.4C126.8,213.7,121.5,111.5,121.5,111.5z"/>
	<path class="st1" d="M121.5,111.7c0,0,64.1,70.6-51,110.7C19.1,113.7,121.5,111.7,121.5,111.7z"/>
	<path class="st2" d="M121.4,111.7c0,0-29.5,90.7-121.4,10.6C68.9,23.8,121.4,111.7,121.4,111.7z"/>
	<path class="st3" d="M121.8,112c0,0-95.4,0.5-48.2-112C188.7,34.5,121.8,112,121.8,112z"/>
	<path class="st4" d="M121.6,111.8c0-0.2,0-0.3,0-0.3s31.2-30.2,64.9-14.9c12.7-13.7,19.9-37.7,11.9-79.3
		c-121.5,10.1-77,94.5-77,94.5S121.4,111.8,121.6,111.8z"/>
</g>
</svg>
