<?xml version="1.0" encoding="utf-8"?>
<!-- Generator: Adobe Illustrator 22.0.1, SVG Export Plug-In . SVG Version: 6.00 Build 0)  -->
<svg version="1.1" id="Layer_1" xmlns="http://www.w3.org/2000/svg" xmlns:xlink="http://www.w3.org/1999/xlink" x="0px" y="0px"
	 viewBox="0 0 531 531" style="enable-background:new 0 0 531 531;" xml:space="preserve">
<style type="text/css">
	.st0{fill:#6284AD;}
	.st1{fill:#D8E0EB;}
	.st2{fill:#2C4C73;}
	.st3{fill:#0A3F7F;}
	.st4{fill:none;stroke:#0A3F7F;stroke-width:3;stroke-linecap:square;stroke-miterlimit:10;}
	.st5{fill:none;stroke:#F7AA00;stroke-width:5;stroke-miterlimit:10;}
	.st6{fill:none;stroke:#FCDD99;stroke-width:5;stroke-miterlimit:10;}
</style>
<g>
	<rect x="123.3" y="63.5" class="st0" width="75" height="449"/>
</g>
<g>
	<rect x="227.7" y="174.5" class="st1" width="75" height="338"/>
</g>
<g>
	<rect x="332" y="351.5" class="st2" width="75" height="161"/>
</g>
<g>
	<rect x="436.3" y="207.5" class="st0" width="75" height="305"/>
</g>
<g>
	<rect x="19" y="351.5" class="st3" width="75" height="161"/>
</g>
<polyline class="st4" points="1.5,2 1.5,529 529.5,529 "/>
<polyline class="st5" points="17,287.5 58,242.5 70,259.5 106,303.5 198,203.5 239.5,261 231,200.5 247,187.5 288.5,239 305,292.5 
	360.5,157 402,183.5 433,101.5 521.5,145 "/>
<polyline class="st6" points="21.5,128 101.5,172 152.5,147 192.5,271 272.5,200 373.5,287 435.1,251.7 520.5,315 "/>
</svg>
