<?xml version="1.0" encoding="utf-8"?>
<!-- Generator: Adobe Illustrator 22.0.1, SVG Export Plug-In . SVG Version: 6.00 Build 0)  -->
<svg version="1.1" id="Layer_1" xmlns="http://www.w3.org/2000/svg" xmlns:xlink="http://www.w3.org/1999/xlink" x="0px" y="0px"
	 viewBox="0 0 176.8 176.4" style="enable-background:new 0 0 176.8 176.4;" xml:space="preserve">
<style type="text/css">
	.st0{fill:#CED9E5;}
	.st1{fill:#0A3F7F;}
	.st2{fill:#6C8CB2;}
</style>
<path class="st0" d="M80.1,134.2c0.2-1.5,0.3-3,0.3-4.6c0-1.6-0.1-3.1-0.4-4.6l9.9-7.7c0.9-0.7,1.1-2,0.6-3l-9.3-16.2
	c-0.6-1.1-1.8-1.4-2.9-1.1l-11.6,4.7c-2.5-1.9-5-3.4-7.9-4.6L57.1,85c-0.2-1.2-1.2-2-2.3-2H36.1c-1.2,0-2.1,0.8-2.3,2L32,97.4
	c-2.9,1.2-5.5,2.7-7.9,4.6l-11.6-4.7c-1.1-0.4-2.3,0-2.9,1.1l-9.3,16.2c-0.6,1.1-0.4,2.3,0.6,3l9.9,7.7c-0.2,1.5-0.4,3-0.4,4.6
	c0,1.5,0.1,3.1,0.4,4.6l-9.9,7.7c-0.9,0.7-1.1,2-0.6,3l9.3,16.2c0.6,1.1,1.8,1.4,2.9,1.1l11.6-4.7c2.5,1.9,5,3.4,7.9,4.6l1.8,12.4
	c0.2,1.2,1.2,2,2.3,2h18.7c1.2,0,2.2-0.8,2.3-2l1.8-12.4c2.9-1.2,5.5-2.7,7.9-4.6l11.6,4.7c1.1,0.4,2.3,0,2.9-1.1l9.3-16.2
	c0.6-1.1,0.4-2.3-0.6-3C89.9,141.9,80.1,134.2,80.1,134.2z M45.4,147.2c-9.6,0-17.5-7.9-17.5-17.5s7.9-17.5,17.5-17.5
	s17.5,7.9,17.5,17.5S55,147.2,45.4,147.2z"/>
<path class="st1" d="M166.1,117.2c0.2-1.5,0.3-3,0.3-4.6c0-1.6-0.1-3.1-0.4-4.6l9.9-7.7c0.9-0.7,1.1-2,0.6-3l-9.3-16.2
	c-0.6-1.1-1.8-1.4-2.9-1.1l-11.6,4.7c-2.5-1.9-5-3.4-7.9-4.6L143.1,68c-0.2-1.2-1.2-2-2.3-2h-18.7c-1.2,0-2.1,0.8-2.3,2L118,80.4
	c-2.9,1.2-5.5,2.7-7.9,4.6l-11.6-4.7c-1.1-0.4-2.3,0-2.9,1.1l-9.3,16.2c-0.6,1.1-0.4,2.3,0.6,3l9.9,7.7c-0.2,1.5-0.4,3-0.4,4.6
	c0,1.5,0.1,3.1,0.4,4.6l-9.9,7.7c-0.9,0.7-1.1,2-0.6,3l9.3,16.2c0.6,1.1,1.8,1.4,2.9,1.1l11.6-4.7c2.5,1.9,5,3.4,7.9,4.6l1.8,12.4
	c0.2,1.2,1.2,2,2.3,2h18.7c1.2,0,2.2-0.8,2.3-2l1.8-12.4c2.9-1.2,5.5-2.7,7.9-4.6l11.6,4.7c1.1,0.4,2.3,0,2.9-1.1l9.3-16.2
	c0.6-1.1,0.4-2.3-0.6-3C175.9,124.9,166.1,117.2,166.1,117.2z M131.4,130.2c-9.6,0-17.5-7.9-17.5-17.5s7.9-17.5,17.5-17.5
	s17.5,7.9,17.5,17.5S141,130.2,131.4,130.2z"/>
<path class="st2" d="M111.1,51.2c0.2-1.5,0.3-3,0.3-4.6s-0.1-3.1-0.4-4.6l9.9-7.7c0.9-0.7,1.1-2,0.6-3l-9.3-16.2
	c-0.6-1.1-1.8-1.4-2.9-1.1l-11.6,4.7c-2.5-1.9-5-3.4-7.9-4.6L88.1,2c-0.2-1.2-1.2-2-2.3-2H67.1c-1.2,0-2.1,0.8-2.3,2L63,14.4
	c-2.9,1.2-5.5,2.7-7.9,4.6l-11.6-4.7c-1.1-0.4-2.3,0-2.9,1.1l-9.3,16.2c-0.6,1.1-0.4,2.3,0.6,3l9.9,7.7c-0.2,1.5-0.4,3-0.4,4.6
	c0,1.5,0.1,3.1,0.4,4.6l-9.9,7.7c-0.9,0.7-1.1,2-0.6,3l9.3,16.2c0.6,1.1,1.8,1.4,2.9,1.1l11.6-4.7c2.5,1.9,5,3.4,7.9,4.6l1.8,12.4
	c0.2,1.2,1.2,2,2.3,2h18.7c1.2,0,2.2-0.8,2.3-2L89.8,79c2.9-1.2,5.5-2.7,7.9-4.6l11.6,4.7c1.1,0.4,2.3,0,2.9-1.1l9.3-16.2
	c0.6-1.1,0.4-2.3-0.6-3C120.9,58.9,111.1,51.2,111.1,51.2z M76.4,64.2c-9.6,0-17.5-7.9-17.5-17.5s7.9-17.5,17.5-17.5
	s17.5,7.9,17.5,17.5S86,64.2,76.4,64.2z"/>
</svg>
